<svg xmlns="http://www.w3.org/2000/svg" version="1.1" width="3300" height="2000"><g id="Notes"><style>
    text {
      font-family: monospace;
      text-anchor: middle;
    }
    text.emphasis {
      font-weight:bold;
    }
    text.lanchor {
      text-anchor: start;
    }
  </style><rect height="2200" id="artboard" fill="white" width="3300" x="0" y="0"/><line id="" style="fill:none;stroke:black;stroke-width:0.5;" x1="263" x2="3036" y1="292" y2="292"/><text class="lanchor emphasis" transform="matrix(1 0 0 1 263 322)">Weight/Scale Variations</text><text transform="matrix(1 0 0 1 559.711 322)">Ultralight</text><text transform="matrix(1 0 0 1 856.422 322)">Thin</text><text transform="matrix(1 0 0 1 1153.13 322)">Light</text><text transform="matrix(1 0 0 1 1449.84 322)">Regular</text><text transform="matrix(1 0 0 1 1746.56 322)">Medium</text><text transform="matrix(1 0 0 1 2043.27 322)">Semibold</text><text transform="matrix(1 0 0 1 2339.98 322)">Bold</text><text transform="matrix(1 0 0 1 2636.69 322)">Heavy</text><text transform="matrix(1 0 0 1 2933.4 322)">Black</text><text id="template-version" style="text-anchor: end;" transform="matrix(1 0 0 1 3036 1933)">Template v.1.0</text><text class="lanchor" transform="matrix(1 0 0 1 263 726)">Small</text><text class="lanchor" transform="matrix(1 0 0 1 263 1156)">Medium</text><text class="lanchor" transform="matrix(1 0 0 1 263 1586)">Large</text></g><g id="Guides"><g id="H-reference" style="fill:#27AAE1;stroke:none;" transform="matrix(1 0 0 1 339 696)"><path d="M 54.9316 0 L 57.666 0 L 30.5664 -70.459 L 28.0762 -70.459 L 0.976562 0 L 3.66211 0 L 12.9395 -24.4629 L 45.7031 -24.4629 Z M 29.1992 -67.0898 L 29.4434 -67.0898 L 44.8242 -26.709 L 13.8184 -26.709 Z"/></g><line id="Baseline-S" style="fill:none;stroke:#27AAE1;opacity:1;stroke-width:0.577;" x1="263" x2="3036" y1="696" y2="696"/><line id="Capline-S" style="fill:none;stroke:#27AAE1;opacity:1;stroke-width:0.577;" x1="263" x2="3036" y1="625.541" y2="625.541"/><g id="H-reference" style="fill:#27AAE1;stroke:none;" transform="matrix(1 0 0 1 339 1126)"><path d="M 54.9316 0 L 57.666 0 L 30.5664 -70.459 L 28.0762 -70.459 L 0.976562 0 L 3.66211 0 L 12.9395 -24.4629 L 45.7031 -24.4629 Z M 29.1992 -67.0898 L 29.4434 -67.0898 L 44.8242 -26.709 L 13.8184 -26.709 Z"/></g><line id="Baseline-M" style="fill:none;stroke:#27AAE1;opacity:1;stroke-width:0.577;" x1="263" x2="3036" y1="1126" y2="1126"/><line id="Capline-M" style="fill:none;stroke:#27AAE1;opacity:1;stroke-width:0.577;" x1="263" x2="3036" y1="1055.54" y2="1055.54"/><g id="H-reference" style="fill:#27AAE1;stroke:none;" transform="matrix(1 0 0 1 339 1556)"><path d="M 54.9316 0 L 57.666 0 L 30.5664 -70.459 L 28.0762 -70.459 L 0.976562 0 L 3.66211 0 L 12.9395 -24.4629 L 45.7031 -24.4629 Z M 29.1992 -67.0898 L 29.4434 -67.0898 L 44.8242 -26.709 L 13.8184 -26.709 Z"/></g><line id="Baseline-L" style="fill:none;stroke:#27AAE1;opacity:1;stroke-width:0.577;" x1="263" x2="3036" y1="1556" y2="1556"/><line id="Capline-L" style="fill:none;stroke:#27AAE1;opacity:1;stroke-width:0.577;" x1="263" x2="3036" y1="1485.54" y2="1485.54"/><rect height="119.336" id="left-margin" style="fill:darkred;stroke:none;opacity:0.4;" width="12.4512" x="1394.06" y="1030.79"/><rect height="119.336" id="right-margin" style="fill:darkgreen;stroke:none;opacity:0.4;" width="12.4512" x="1502.5112" y="1030.79"/><rect x="1406.5112" y="1045" width="96" height="96" fill="none" stroke="blue" stroke-dasharray="5"/><rect x="1394.06" y="1030.79" width="120.9024" height="119.336" fill="none" stroke="blue"/></g><g id="Symbols"><g id="Bold-L" transform="matrix(1 0 0 1 2266 1556)"><path d="M98.685 27.012500000000017  56.276250000000005 12.016250000000014  28.86375 23.142500000000013 Q24.02625 25.400000000000006 19.6725 22.57812500000003 Q15.31875 19.756250000000023 15.31875 14.273750000000007 V-75.70374999999999 Q15.31875 -79.08999999999997 17.25375 -81.83124999999998 Q19.18875 -84.57249999999999 22.41375 -85.70124999999999 L56.276250000000005 -97.47249999999998 L98.685 -82.63749999999999 L125.93625 -93.76374999999999 Q130.77375 -95.85999999999999 135.208125 -93.11874999999998 Q139.6425 -90.37749999999998 139.6425 -84.89499999999998 V6.211250000000007 Q139.6425 9.43625000000003 137.626875 11.77437500000002 Q135.61125 14.112500000000011 132.5475 15.080000000000013 L98.685 27.012500000000017 Z M93.2025 8.952500000000015 V-69.09249999999999 L61.597500000000004 -79.73499999999999 V-1.6899999999999835 L93.2025 8.952500000000015 Z M102.8775 8.952500000000015  124.32375 2.0187500000000114 V-77.31624999999998 L102.8775 -69.09249999999999 V8.952500000000015 Z M30.47625 6.533750000000026  51.9225 -1.6899999999999835 V-79.73499999999999 L30.47625 -72.63999999999999 V6.533750000000026 Z"/></g><g id="Semibold-L" transform="matrix(1 0 0 1 1970.27 1556)"><path d="M98.685 25.189730000000026  56.276250000000005 10.193480000000022  28.232778749999998 21.46001750000002 Q24.306663750000002 23.366960000000034 20.68902 21.070921250000026 Q17.07137625 18.774721250000027 17.07137625 14.273750000000007 V-75.70374999999999 Q17.07137625 -78.52917249999999 18.690810000000003 -80.77973874999998 Q20.310405 -83.03014374999998 22.974577500000002 -84.01876749999998 L56.276250000000005 -95.64972999999998 L98.685 -80.81473 L126.56722125 -92.08126749999998 Q130.49333625 -93.82695999999999 134.15661375000002 -91.61154624999998 Q137.81973000000002 -89.39597124999999 137.81973000000002 -84.89499999999998 V6.211250000000007 Q137.81973000000002 8.805278750000014 136.1546625 10.687711250000007 Q134.489595 12.57014375 131.9866725 13.39751750000002 L98.685 25.189730000000026 Z M93.2025 9.723597500000011 V-69.79361499999999 L61.597500000000004 -80.43611499999999 V-0.9189024999999731 L93.2025 9.723597500000011 Z M102.8775 9.723597500000011  124.95472125 2.509433750000028 V-78.22763499999999 L102.8775 -69.79361499999999 V9.723597500000011 Z M29.84527875 7.5152787500000215  51.9225 -0.9189024999999731 V-80.43611499999999 L29.84527875 -73.13068374999997 V7.5152787500000215 Z"/></g><g id="Medium-L" transform="matrix(1 0 0 1 1674.31 1556)"><path d="M98.685 23.822652500000004  56.276250000000005 8.8264025  27.75951 20.197913750000026 Q24.516933750000003 21.842018750000022 21.451571249999997 19.940236250000027 Q18.3860475 18.03861500000002 18.3860475 14.273750000000007 V-75.70374999999999 Q18.3860475 -78.10847124999998 19.7689275 -79.99090374999997 Q21.1518075 -81.87333625 23.39527875 -82.75666374999997 L56.276250000000005 -94.28265249999998 L98.685 -79.44765249999999 L127.04048999999999 -90.81916374999999 Q130.28306625 -92.30201874999999 133.36777875 -90.48086124999998 Q136.4526525 -88.659865 136.4526525 -84.89499999999998 V6.211250000000007 Q136.4526525 8.332010000000025 135.05042250000002 9.872753750000015 Q133.6481925 11.413336250000015 131.56597125000002 12.135413750000026 L98.685 23.822652500000004 Z M93.2025 10.302162500000009 V-70.31945124999999 L61.597500000000004 -80.96195124999998 V-0.34033749999997553 L93.2025 10.302162500000009 Z M102.8775 10.302162500000009  125.42799 2.8775675000000263 V-78.91117374999999 L102.8775 -70.31945124999999 V10.302162500000009 Z M29.37201 8.251385000000028  51.9225 -0.34033749999997553 V-80.96195124999998 L29.37201 -73.49881749999999 V8.251385000000028 Z"/></g><g id="Regular-L" transform="matrix(1 0 0 1 1378.56 1556)"><path d="M98.685 22.82000000000002  56.276250000000005 7.823750000000018  27.4125 19.272500000000008 Q24.67125 20.723750000000024 22.010625 19.111250000000013 Q19.35 17.49875000000003 19.35 14.273750000000007 V-75.70374999999999 Q19.35 -77.79999999999998 20.559375 -79.4125 Q21.76875 -81.02499999999998 23.70375 -81.83124999999998 L56.276250000000005 -93.27999999999999 L98.685 -78.445 L127.3875 -89.89374999999998 Q130.12875 -91.18374999999997 132.789375 -89.65187499999999 Q135.45000000000002 -88.11999999999998 135.45000000000002 -84.89499999999998 V6.211250000000007 Q135.45000000000002 7.985000000000014 134.240625 9.275000000000006 Q133.03125 10.565000000000026 131.2575 11.210000000000008 L98.685 22.82000000000002 Z M93.2025 10.726250000000022 V-70.70499999999998 L61.597500000000004 -81.34749999999998 V0.0837500000000091 L93.2025 10.726250000000022 Z M102.8775 10.726250000000022  125.775 3.147500000000008 V-79.4125 L102.8775 -70.70499999999998 V10.726250000000022 Z M29.025000000000002 8.79125000000002  51.9225 0.0837500000000091 V-81.34749999999998 L29.025000000000002 -73.76874999999998 V8.79125000000002 Z"/></g><g id="Light-L" transform="matrix(1 0 0 1 1082.77 1556)"><path d="M98.18883375 19.346675000000033  56.77241625 4.722590000000025  29.831411250000002 15.364928750000018 Q27.338325 16.630257500000027 24.956823749999998 15.17271875000003 Q22.57516125 13.715341250000023 22.57516125 10.800425000000018 V-73.53284124999999 Q22.57516125 -75.44316999999998 23.598615000000002 -76.96262875 Q24.6219075 -78.48208749999998 26.370825 -79.16417499999997 L56.77241625 -89.80667499999998 L98.18883375 -75.34383999999997 L124.96858875000001 -85.92425874999998 Q127.46167500000001 -87.09025749999998 129.84317625 -85.77542499999998 Q132.22483875 -84.46059249999999 132.22483875 -81.60775749999998 V4.0403412500000115 Q132.22483875 5.752171250000032 131.108505 7.011211250000031 Q129.99201000000002 8.27009000000001 128.3424225 8.853170000000034 L98.18883375 19.346675000000033 Z M94.00875 10.230083750000006 V-69.58850499999998 L60.791250000000005 -80.91325375 V-1.0946649999999778 L94.00875 10.230083750000006 Z M101.32692 10.230083750000006  124.90666875000001 2.4652512500000228 V-78.48208749999998 L101.32692 -69.58850499999998 V10.230083750000006 Z M29.89333125 7.860837500000031  53.473079999999996 -1.0946649999999778 V-80.91325375 L29.89333125 -73.02441999999999 V7.860837500000031 Z"/></g><g id="Thin-L" transform="matrix(1 0 0 1 787.282 1556)"><path d="M97.6926675 15.873833750000017  57.2685825 1.6219137500000045  32.25 11.458163750000011 Q30.00491625 12.537248750000032 27.902377500000004 11.23483250000001 Q25.8 9.932416250000017 25.8 7.327583750000031 V-71.36241624999998 Q25.8 -73.08650124999998 26.637210000000003 -74.51307999999997 Q27.47442 -75.93949749999999 29.03741625 -76.49758374999999 L57.2685825 -86.33383374999998 L97.6926675 -72.24316374999998 L122.55 -81.95541249999998 Q124.79508375 -82.99724874999998 126.8976225 -81.89945874999998 Q129.0 -80.80182999999998 129.0 -78.32099874999997 V1.869916250000017 Q129.0 3.5196650000000034 127.9767075 4.747583750000018 Q126.953415 5.975663750000024 125.4276675 6.496501250000023 L97.6926675 15.873833750000017 Z M94.815 9.733917500000018 V-68.4723325 L59.985 -80.47916874999999 V-2.272918749999988 L94.815 9.733917500000018 Z M99.77650125000001 9.733917500000018  124.03849875 1.7831637500000284 V-77.55199749999998 L99.77650125000001 -68.4723325 V9.733917500000018 Z M30.761501250000002 6.930747500000024  55.02349875 -2.272918749999988 V-80.47916874999999 L30.761501250000002 -72.28025124999999 V6.930747500000024 Z"/></g><g id="Ultralight-L" transform="matrix(1 0 0 1 491.205 1556)"><path d="M97.395 13.79000000000002  57.566250000000004 -0.2387499999999818  33.70125 9.11375000000001 Q31.605 10.081250000000011 29.67 8.871875000000017 Q27.735 7.662500000000023 27.735 5.243750000000006 V-70.05999999999997 Q27.735 -71.67249999999999 28.460625 -73.04312499999997 Q29.18625 -74.41375 30.6375 -74.89749999999998 L57.566250000000004 -84.24999999999999 L97.395 -70.3825 L121.09875000000001 -79.57374999999999 Q123.19500000000001 -80.54124999999999 125.13000000000001 -79.57374999999999 Q127.065 -78.60624999999999 127.065 -76.34874999999998 V0.5675000000000239 Q127.065 2.180000000000007 126.0975 3.3893750000000296 Q125.13000000000001 4.598750000000024 123.67875000000001 5.08250000000001 L97.395 13.79000000000002 Z M95.29875 9.43625000000003 V-67.80249999999998 L59.50125 -80.21874999999999 V-2.9799999999999756 L95.29875 9.43625000000003 Z M98.84625 9.43625000000003  123.5175 1.3737500000000296 V-76.99374999999998 L98.84625 -67.80249999999998 V9.43625000000003 Z M31.282500000000002 6.372500000000031  55.95375 -2.9799999999999756 V-80.21874999999999 L31.282500000000002 -71.83374999999998 V6.372500000000031 Z"/></g><g id="Bold-M" transform="matrix(1 0 0 1 2281.8 1126)"><path d="M75.0 14.14500000000001  45.0 3.6450000000000102  23.25 12.27000000000001 Q18.75 14.02000000000001 14.75 11.27000000000001 Q10.75 8.52000000000001 10.75 3.5200000000000102 V-66.47999999999999 Q10.75 -69.47999999999999 12.5 -71.85499999999999 Q14.25 -74.22999999999999 17.125 -75.22999999999999 L45.0 -84.60499999999999 L75.0 -74.10499999999999 L96.75 -82.72999999999999 Q101.25 -84.47999999999999 105.25 -81.72999999999999 Q109.25 -78.97999999999999 109.25 -73.97999999999999 V-3.9799999999999898 Q109.25 -0.9799999999999898 107.5 1.3950000000000102 Q105.75 3.7700000000000102 102.875 4.77000000000001 L75.0 14.14500000000001 Z M70.0 -4.22999999999999 V-59.22999999999999 L50.0 -66.22999999999999 V-11.22999999999999 L70.0 -4.22999999999999 Z M80.0 -4.22999999999999  93.5 -8.60499999999999 V-64.47999999999999 L80.0 -59.22999999999999 V-4.22999999999999 Z M26.5 -5.97999999999999  40.0 -11.22999999999999 V-66.22999999999999 L26.5 -61.85499999999999 V-5.97999999999999 Z"/></g><g id="Semibold-M" transform="matrix(1 0 0 1 1985.97 1126)"><path d="M75.0 12.24300000000001  45.0 1.7430000000000092  22.597875 10.531000000000006 Q18.967375 11.954875000000015 15.7825 9.721125000000015 Q12.59775 7.487500000000011 12.59775 3.5200000000000102 V-66.47999999999999 Q12.59775 -68.88225 13.9945 -70.768125 Q15.39125 -72.654 17.72275 -73.49099999999999 L45.0 -82.70299999999999 L75.0 -72.20299999999999 L97.402125 -80.99099999999999 Q101.032625 -82.414875 104.2175 -80.181125 Q107.40225 -77.94749999999999 107.40225 -73.97999999999999 V-3.9799999999999898 Q107.40225 -1.5777499999999947 106.0055 0.308125000000004 Q104.60875 2.194000000000017 102.27725 3.031000000000006 L75.0 12.24300000000001 Z M70.0 -3.469124999999991 V-59.99087499999999 L50.0 -66.99087499999999 V-10.469124999999991 L70.0 -3.469124999999991 Z M80.0 -3.469124999999991  94.152125 -8.115874999999988 V-65.45824999999999 L80.0 -59.99087499999999 V-3.469124999999991 Z M25.847875 -5.001749999999987  40.0 -10.469124999999991 V-66.99087499999999 L25.847875 -62.34412499999999 V-5.001749999999987 Z"/></g><g id="Medium-M" transform="matrix(1 0 0 1 1689.91 1126)"><path d="M75.0 10.81625000000001  45.0 0.3162500000000108  22.10875 9.226500000000016 Q19.130375 10.405875000000009 16.557 8.559375000000017 Q13.983625 6.713000000000008 13.983625 3.5200000000000102 V-66.47999999999999 Q13.983625 -68.43374999999999 15.1155 -69.95287499999999 Q16.24725 -71.47187499999998 18.17125 -72.1865 L45.0 -81.27624999999999 L75.0 -70.77624999999999 L97.89125 -79.6865 Q100.869625 -80.86587499999999 103.443 -79.019375 Q106.016375 -77.17299999999999 106.016375 -73.97999999999999 V-3.9799999999999898 Q106.016375 -2.0262499999999903 104.8845 -0.5071249999999878 Q103.75275 1.0118750000000034 101.82875 1.7265000000000157 L75.0 10.81625000000001 Z M70.0 -2.8984999999999843 V-60.56149999999999 L50.0 -67.5615 V-9.898499999999984 L70.0 -2.8984999999999843 Z M80.0 -2.8984999999999843  94.64125 -7.748999999999995 V-66.192 L80.0 -60.56149999999999 V-2.8984999999999843 Z M25.35875 -4.2679999999999865  40.0 -9.898499999999984 V-67.5615 L25.35875 -62.71099999999999 V-4.2679999999999865 Z"/></g><g id="Regular-M" transform="matrix(1 0 0 1 1394.06 1126)"><path d="M75.0 9.77000000000001  45.0 -0.7299999999999898  21.75 8.27000000000001 Q19.25 9.27000000000001 17.125 7.70750000000001 Q15.0 6.14500000000001 15.0 3.5200000000000102 V-66.47999999999999 Q15.0 -68.10499999999999 15.9375 -69.35499999999999 Q16.875 -70.60499999999999 18.5 -71.22999999999999 L45.0 -80.22999999999999 L75.0 -69.72999999999999 L98.25 -78.72999999999999 Q100.75 -79.72999999999999 102.875 -78.16749999999999 Q105.0 -76.60499999999999 105.0 -73.97999999999999 V-3.9799999999999898 Q105.0 -2.3549999999999898 104.0625 -1.1049999999999898 Q103.125 0.14500000000001023 101.5 0.7700000000000102 L75.0 9.77000000000001 Z M70.0 -2.4799999999999898 V-60.97999999999999 L50.0 -67.97999999999999 V-9.47999999999999 L70.0 -2.4799999999999898 Z M80.0 -2.4799999999999898  95.0 -7.47999999999999 V-66.72999999999999 L80.0 -60.97999999999999 V-2.4799999999999898 Z M25.0 -3.7299999999999898  40.0 -9.47999999999999 V-67.97999999999999 L25.0 -62.97999999999999 V-3.7299999999999898 Z"/></g><g id="Light-M" transform="matrix(1 0 0 1 1098.18 1126)"><path d="M75.0 7.077500000000015  45.0 -3.422499999999985  23.480875 4.904375000000016 Q21.269375 5.760125000000016 19.38475 4.414000000000016 Q17.500125 3.067875000000015 17.500125 0.7313750000000141 V-64.84525 Q17.500125 -66.326 18.2935 -67.503875 Q19.08675 -68.68175 20.519375 -69.210625 L45.0 -77.5375 L75.0 -67.0375 L96.519125 -75.364375 Q98.730625 -76.220125 100.61525 -74.946125 Q102.499875 -73.672125 102.499875 -71.383625 V-5.422374999999988 Q102.499875 -3.893624999999986 101.6345 -2.7397499999999866 Q100.769 -1.5858749999999873 99.28825 -1.056999999999988 L75.0 7.077500000000015 Z M71.250125 -2.09537499999999 V-60.59537499999999 L48.749875 -68.46074999999999 V-9.96074999999999 L71.250125 -2.09537499999999 Z M78.749875 -2.09537499999999  95.0 -7.47999999999999 V-66.72999999999999 L78.749875 -60.59537499999999 V-2.09537499999999 Z M25.0 -3.7299999999999898  41.250125 -9.96074999999999 V-68.46074999999999 L25.0 -62.97999999999999 V-3.7299999999999898 Z"/></g><g id="Thin-M" transform="matrix(1 0 0 1 802.565 1126)"><path d="M75.0 4.3853750000000105  45.0 -6.1146249999999895  25.2115 1.5392500000000098 Q23.288375 2.2507500000000107 21.64425 1.1210000000000093 Q20.0 -0.008749999999992042 20.0 -2.056874999999991 V-63.21074999999999 Q20.0 -64.54737499999999 20.649 -65.65312499999999 Q21.298 -66.75887499999999 22.538375 -67.19162499999999 L45.0 -74.84537499999999 L75.0 -64.34537499999999 L94.7885 -71.99924999999999 Q96.711625 -72.71074999999999 98.35575 -71.72524999999999 Q100.0 -70.73962499999999 100.0 -68.78774999999999 V-6.8646249999999895 Q100.0 -5.431874999999991 99.20675 -4.374249999999989 Q98.4135 -3.3164999999999907 97.077 -2.883874999999989 L75.0 4.3853750000000105 Z M72.5 -1.7107499999999902 V-60.21074999999999 L47.5 -68.94149999999999 V-10.44149999999999 L72.5 -1.7107499999999902 Z M77.5 -1.7107499999999902  95.0 -7.47999999999999 V-66.72999999999999 L77.5 -60.21074999999999 V-1.7107499999999902 Z M25.0 -3.7299999999999898  42.5 -10.44149999999999 V-68.94149999999999 L25.0 -62.97999999999999 V-3.7299999999999898 Z"/></g><g id="Ultralight-M" transform="matrix(1 0 0 1 506.415 1126)"><path d="M75.0 2.7700000000000102  45.0 -7.72999999999999  26.25 -0.47999999999998977 Q24.5 0.14500000000001023 23.0 -0.8549999999999898 Q21.5 -1.8549999999999898 21.5 -3.7299999999999898 V-62.22999999999999 Q21.5 -63.47999999999999 22.0625 -64.54249999999999 Q22.625 -65.60499999999999 23.75 -65.97999999999999 L45.0 -73.22999999999999 L75.0 -62.72999999999999 L93.75 -69.97999999999999 Q95.5 -70.60499999999999 97.0 -69.79249999999999 Q98.5 -68.97999999999999 98.5 -67.22999999999999 V-7.72999999999999 Q98.5 -6.35499999999999 97.75 -5.35499999999999 Q97.0 -4.35499999999999 95.75 -3.9799999999999898 L75.0 2.7700000000000102 Z M73.25 -1.4799999999999898 V-59.97999999999999 L46.75 -69.22999999999999 V-10.72999999999999 L73.25 -1.4799999999999898 Z M76.75 -1.4799999999999898  95.0 -7.47999999999999 V-66.72999999999999 L76.75 -59.97999999999999 V-1.4799999999999898 Z M25.0 -3.7299999999999898  43.25 -10.72999999999999 V-69.22999999999999 L25.0 -62.97999999999999 V-3.7299999999999898 Z"/></g><g id="Bold-S" transform="matrix(1 0 0 1 2294.23 696)"><path d="M59.175000000000004 1.3598750000000024  35.505 -5.741124999999997  21.598875 -1.0071249999999878 Q17.7525 0.3736250000000041 14.300625 -1.944062499999987 Q10.84875 -4.261749999999992 10.84875 -8.699874999999992 V-57.815124999999995 Q10.84875 -60.477999999999994 12.42675 -62.598437499999996 Q14.004750000000001 -64.718875 16.371750000000002 -65.507875 L35.505 -71.819875 L59.175000000000004 -64.718875 L73.081125 -69.45287499999999 Q76.92750000000001 -71.030875 80.37937500000001 -68.61456249999999 Q83.83125 -66.19825 83.83125 -61.760124999999995 V-12.644874999999999 Q83.83125 -9.982 82.30256250000001 -7.812249999999992 Q80.773875 -5.642499999999998 78.30825 -4.952124999999995 L59.175000000000004 1.3598750000000024 Z M55.624500000000005 -11.954499999999996 V-53.57424999999999 L39.0555 -58.5055 V-16.885749999999987 L55.624500000000005 -11.954499999999996 Z M62.725500000000004 -12.151749999999993  72.1935 -15.209125 V-56.73025 L62.725500000000004 -53.57424999999999 V-12.151749999999993 Z M22.4865 -13.729749999999996  31.954500000000003 -16.885749999999987 V-58.308249999999994 L22.4865 -55.25087499999999 V-13.729749999999996 Z"/></g><g id="Semibold-S" transform="matrix(1 0 0 1 1998.1 696)"><path d="M59.175000000000004 -0.14080299999999113  35.505 -7.24180299999999  21.084348375 -2.379195999999993 Q17.924008875000002 -1.2557586249999844 15.1152675 -3.166124874999994 Q12.306624750000001 -5.076392499999997 12.306624750000001 -8.699874999999992 V-57.815124999999995 Q12.306624750000001 -60.00637525 13.6059105 -61.740893125 Q14.90519625 -63.475410999999994 16.843374750000002 -64.135804 L35.505 -70.319197 L59.175000000000004 -63.21819699999999 L73.595651625 -68.080804 Q76.755991125 -69.40149137499999 79.5647325 -67.392500125 Q82.37337525 -65.3836075 82.37337525 -61.760124999999995 V-12.644874999999999 Q82.37337525 -10.453624750000003 81.123402 -8.669794374999995 Q79.87342875 -6.885963999999987 77.83662525 -6.324196000000001 L59.175000000000004 -0.14080299999999113 Z M55.624500000000005 -11.354169624999997 V-54.17458037499999 L39.0555 -59.105830375 V-16.28541962499999 L55.624500000000005 -11.354169624999997 Z M62.725500000000004 -11.551419624999994  72.708026625 -14.823205374999986 V-57.50208925 L62.725500000000004 -54.17458037499999 V-11.551419624999994 Z M21.971973375 -12.957910749999996  31.954500000000003 -16.28541962499999 V-58.90858037499999 L21.971973375 -55.63679462499999 V-12.957910749999996 Z"/></g><g id="Medium-S" transform="matrix(1 0 0 1 1701.85 696)"><path d="M59.175000000000004 -1.2665087499999856  35.505 -8.367508749999999  20.69842875 -3.4084464999999824 Q18.052615875 -2.4779196249999984 15.726348 -4.082745624999987 Q13.400080125 -5.687472999999997 13.400080125 -8.699874999999992 V-57.815124999999995 Q13.400080125 -59.652508749999996 14.490379500000001 -61.097660874999995 Q15.580580250000002 -62.542714374999996 17.19724125 -63.10655349999999 L35.505 -69.19349125 L59.175000000000004 -62.092491249999995 L73.98157125 -67.0515535 Q76.627384125 -68.17933037499999 78.953652 -66.47587937499999 Q81.279919875 -64.772527 81.279919875 -61.760124999999995 V-12.644874999999999 Q81.279919875 -10.807491249999998 80.238933 -9.313026624999992 Q79.19804475000001 -7.818660624999993 77.48275875 -7.35344649999999 L59.175000000000004 -1.2665087499999856 Z M55.624500000000005 -10.90394649999999 V-54.62480349999999 L39.0555 -59.5560535 V-15.835196499999995 L55.624500000000005 -10.90394649999999 Z M62.725500000000004 -11.101196499999986  73.09394625 -14.533740999999992 V-58.081018 L62.725500000000004 -54.62480349999999 V-11.101196499999986 Z M21.58605375 -12.378981999999993  31.954500000000003 -15.835196499999995 V-59.35880349999999 L21.58605375 -55.926258999999995 V-12.378981999999993 Z"/></g><g id="Regular-S" transform="matrix(1 0 0 1 1405.73 696)"><path d="M59.175000000000004 -2.0919999999999987  35.505 -9.192999999999998  20.415375 -4.163124999999994 Q18.147000000000002 -3.3741249999999923 16.174500000000002 -4.754874999999998 Q14.202 -6.13562499999999 14.202 -8.699874999999992 V-57.815124999999995 Q14.202 -59.393125 15.1389375 -60.62593749999999 Q16.075875 -61.85875 17.456625000000003 -62.35187499999999 L35.505 -68.368 L59.175000000000004 -61.266999999999996 L74.26462500000001 -66.296875 Q76.533 -67.283125 78.5055 -65.80375 Q80.47800000000001 -64.324375 80.47800000000001 -61.760124999999995 V-12.644874999999999 Q80.47800000000001 -11.066874999999996 79.59037500000001 -9.784749999999988 Q78.70275000000001 -8.502624999999995 77.223375 -8.108124999999987 L59.175000000000004 -2.0919999999999987 Z M55.624500000000005 -10.57374999999999 V-54.955 L39.0555 -59.88625 V-15.504999999999995 L55.624500000000005 -10.57374999999999 Z M62.725500000000004 -10.770999999999987  73.37700000000001 -14.3215 V-58.5055 L62.725500000000004 -54.955 V-10.770999999999987 Z M21.303 -11.954499999999996  31.954500000000003 -15.504999999999995 V-59.68899999999999 L21.303 -56.13849999999999 V-11.954499999999996 Z"/></g><g id="Light-S" transform="matrix(1 0 0 1 1109.75 696)"><path d="M59.175000000000004 -4.216382499999995  35.505 -11.317382499999994  21.781035375000002 -6.8186031249999814 Q19.740286875000002 -6.143416374999987 17.957442750000002 -7.35344649999999 Q16.174598625 -8.563476624999993 16.174598625 -10.900100124999994 V-56.52530725 Q16.174598625 -57.98949399999999 16.9978215 -59.16539987499999 Q17.82094575 -60.34130574999999 19.049911875 -60.758588125 L35.505 -66.2436175 L59.175000000000004 -59.14261749999999 L72.898964625 -63.641396875 Q74.93971312500001 -64.51383362499999 76.72255725000001 -63.262085125 Q78.505401375 -62.010336624999994 78.505401375 -59.71158512499999 V-13.78290887499999 Q78.505401375 -12.280850124999986 77.674683 -11.074567749999986 Q76.843866 -9.868285374999985 75.47830425000001 -9.549627999999998 L59.175000000000004 -4.216382499999995 Z M56.610848625 -10.270280874999997 V-54.65153087499999 L38.069151375000004 -60.265561749999996 V-15.884311749999995 L56.610848625 -10.270280874999997 Z M61.739151375000006 -10.467530874999994  73.37700000000001 -14.3215 V-58.5055 L61.739151375000006 -54.65153087499999 V-10.467530874999994 Z M21.303 -11.954499999999996  32.940848625 -15.884311749999995 V-60.06831174999999 L21.303 -56.13849999999999 V-11.954499999999996 Z"/></g><g id="Thin-S" transform="matrix(1 0 0 1 814.015 696)"><path d="M59.175000000000004 -6.3404691249999985  35.505 -13.441469124999998  23.146498500000003 -9.473686749999999 Q21.333277875 -8.912313249999997 19.74018825 -9.951623499999997 Q18.147000000000002 -10.990933749999996 18.147000000000002 -13.100029374999991 V-55.23568674999999 Q18.147000000000002 -56.586158874999995 18.856311 -57.705158125 Q19.565622 -58.82415737499999 20.642902875 -59.16559712499999 L35.505 -64.119530875 L59.175000000000004 -57.018530874999996 L71.5335015 -60.986313249999995 Q73.346722125 -61.744936749999994 74.93981175 -60.720814749999995 Q76.533 -59.696594125 76.533 -57.663439749999995 V-14.920844124999988 Q76.533 -13.494529374999999 75.75918825000001 -12.364188249999998 Q74.9853765 -11.23374849999999 73.733628 -10.991032374999989 L59.175000000000004 -6.3404691249999985 Z M57.597 -9.96681174999999 V-54.34806174999999 L37.083 -60.644873499999996 V-16.263623499999994 L57.597 -9.96681174999999 Z M60.753 -10.164061749999988  73.37700000000001 -14.3215 V-58.5055 L60.753 -54.34806174999999 V-10.164061749999988 Z M21.303 -11.954499999999996  33.927 -16.263623499999994 V-60.44762349999999 L21.303 -56.13849999999999 V-11.954499999999996 Z"/></g><g id="Ultralight-S" transform="matrix(1 0 0 1 517.792 696)"><path d="M59.175000000000004 -7.614999999999995  35.505 -14.715999999999994  23.965875 -11.066874999999996 Q22.289250000000003 -10.57374999999999 20.809875 -11.510687499999989 Q19.3305 -12.447624999999988 19.3305 -14.420124999999999 V-54.46187499999999 Q19.3305 -55.74399999999999 19.9715625 -56.828875 Q20.612625 -57.91374999999999 21.598875 -58.209624999999996 L35.505 -62.845 L59.175000000000004 -55.74399999999999 L70.71412500000001 -59.393125 Q72.39075 -60.083499999999994 73.870125 -59.195874999999994 Q75.3495 -58.308249999999994 75.3495 -56.434374999999996 V-15.603624999999994 Q75.3495 -14.222874999999988 74.6098125 -13.137999999999991 Q73.870125 -12.053124999999994 72.686625 -11.855874999999997 L59.175000000000004 -7.614999999999995 Z M58.188750000000006 -9.784749999999988 V-54.166 L36.49125 -60.872499999999995 V-16.491249999999994 L58.188750000000006 -9.784749999999988 Z M60.16125 -9.982  73.37700000000001 -14.3215 V-58.5055 L60.16125 -54.166 V-9.982 Z M21.303 -11.954499999999996  34.518750000000004 -16.491249999999994 V-60.67524999999999 L21.303 -56.13849999999999 V-11.954499999999996 Z"/></g></g></svg>